<svg xmlns="http://www.w3.org/2000/svg" width="101.32" height="71.478" viewBox="-72 -72 75.99 53.608"><g stroke="#000" stroke-miterlimit="10" stroke-width=".4"><g stroke="none"><text x="-25.476" y="-78.535" stroke="none" font-family="cmmi10" font-size="10" transform="translate(-33.694 19.493)">X</text><text x="15.683" y="-78.535" stroke="none" font-family="cmmi10" font-size="10" transform="translate(-33.174 19.493)">Y</text><text x="-25.476" y="-46.383" stroke="none" font-family="cmmi10" font-size="10" transform="translate(-33.694 19.493)">X</text><text x="15.683" y="-46.383" stroke="none" font-family="cmmi10" font-size="10" transform="translate(-33.174 19.493)">Y</text></g><path fill="none" d="M-45.596-61.542h23.2"/><path fill="none" stroke-linecap="round" stroke-linejoin="round" d="M-24.276-63.942c.38 1.44 1.227 2.12 2.08 2.4-.853.28-1.7.96-2.08 2.4"/><text x="-34.316" y="-46.383" stroke="none" font-family="cmmi7" font-size="7" transform="translate(-1.821 -18.874)">f</text><path fill="none" d="M-46.496-55.183-22.31-36.29"/><path fill="none" stroke-linecap="round" stroke-linejoin="round" stroke-width=".399988" d="M-22.315-39.338c-.587 1.368-.338 2.426.162 3.171-.845-.304-1.93-.29-3.117.611"/><text x="-34.316" y="-46.383" stroke="none" font-family="cmmi7" font-size="7" transform="translate(-6.966 7.983)">f</text><path fill="none" d="M-54.636-55.183v17.2"/><path fill="none" stroke-linecap="round" stroke-linejoin="round" d="M-52.236-39.862c-1.44.38-2.12 1.226-2.4 2.08-.28-.854-.96-1.7-2.4-2.08"/><g stroke="none"><text x="-34.316" y="-46.383" font-family="cmr7" font-size="7" transform="translate(-35.8 1.928)">id</text><text x="-27.636" y="-45.377" font-family="cmmi5" font-size="5" transform="translate(-35.8 1.928)">X</text></g><path fill="none" d="M-13.476-55.183v17.2"/><path fill="none" stroke-linecap="round" stroke-linejoin="round" d="M-11.076-39.862c-1.44.38-2.12 1.226-2.4 2.08-.28-.854-.96-1.7-2.4-2.08"/><g stroke="none"><text x="-34.316" y="-46.383" font-family="cmr7" font-size="7" transform="translate(23.193 1.928)">id</text><text x="-27.636" y="-45.377" font-family="cmmi5" font-size="5" transform="translate(23.193 1.928)">Y</text></g><path fill="none" d="M-45.596-29.39h23.2"/><path fill="none" stroke-linecap="round" stroke-linejoin="round" d="M-24.276-31.79c.38 1.44 1.227 2.12 2.08 2.4-.853.28-1.7.96-2.08 2.4"/><text x="-34.316" y="-46.383" stroke="none" font-family="cmmi7" font-size="7" transform="translate(-1.821 24.207)">f</text></g></svg>