<svg xmlns="http://www.w3.org/2000/svg" width="315.934" height="91.427" viewBox="-72 -72 236.951 68.57"><g stroke="#000" stroke-miterlimit="10" stroke-width=".4"><g stroke="none"><g stroke="none" font-size="10"><text x="95.552" y="-82.924" font-family="cmbx10" transform="translate(-137.018 24.66)">P</text><text x="103.094" y="-82.924" font-family="cmbx10" transform="translate(-137.018 24.66)">ara</text><text x="119.01" y="-82.924" font-family="cmr10" transform="translate(-137.018 24.66)">(</text><text x="122.899" y="-82.924" font-family="cmsy10" transform="translate(-137.018 24.66)">C</text><text x="128.748" y="-82.924" font-family="cmr10" transform="translate(-137.018 24.66)">)</text></g><g stroke="none" font-size="10"><text x="238.028" y="-82.924" font-family="cmbx10" transform="translate(-152.463 24.66)">P</text><text x="245.569" y="-82.924" font-family="cmbx10" transform="translate(-152.463 24.66)">ara</text><text x="261.486" y="-82.924" font-family="cmr10" transform="translate(-152.463 24.66)">(</text><text x="265.375" y="-82.924" font-family="cmbx10" transform="translate(-152.463 24.66)">Lens</text><text x="288.487" y="-82.924" font-family="cmr10" transform="translate(-152.463 24.66)">(</text><text x="292.376" y="-82.924" font-family="cmsy10" transform="translate(-152.463 24.66)">C</text><text x="298.225" y="-82.924" font-family="cmr10" transform="translate(-152.463 24.66)">))</text></g><g stroke="none" font-size="10"><text x="95.552" y="-38.605" font-family="cmbx10" transform="translate(-163.517 24.66)">P</text><text x="103.094" y="-38.605" font-family="cmbx10" transform="translate(-163.517 24.66)">ara</text><text x="119.01" y="-38.605" font-family="cmr10" transform="translate(-163.517 24.66)">(</text><text x="122.899" y="-38.605" font-family="cmbx10" transform="translate(-163.517 24.66)">Op</text><text x="138.246" y="-38.605" font-family="cmbx10" transform="translate(-163.517 24.66)">enMo</text><text x="166.892" y="-38.605" font-family="cmbx10" transform="translate(-163.517 24.66)">del</text><text x="181.746" y="-38.605" font-family="cmr10" transform="translate(-163.517 24.66)">)</text></g><g stroke="none" font-size="10"><text x="238.028" y="-38.605" font-family="cmbx10" transform="translate(-159.298 24.66)">P</text><text x="245.569" y="-38.605" font-family="cmbx10" transform="translate(-159.298 24.66)">ara</text><text x="261.486" y="-38.605" font-family="cmr10" transform="translate(-159.298 24.66)">(</text><text x="265.375" y="-38.605" font-family="cmbx10" transform="translate(-159.298 24.66)">StatGame</text><text x="315.784" y="-38.605" font-family="cmr10" transform="translate(-159.298 24.66)">)</text></g></g><path fill="none" d="M.125-60.764h80.534"/><path fill="none" stroke-linecap="round" stroke-linejoin="round" d="M78.78-63.164c.38 1.44 1.226 2.12 2.08 2.4-.854.28-1.7.96-2.08 2.4"/><g stroke="none" font-size="7"><text x="46.205" y="-38.605" font-family="cmbx7" transform="translate(-20.996 -26.262)">P</text><text x="52.107" y="-38.605" font-family="cmbx7" transform="translate(-20.996 -26.262)">ara</text><text x="64.661" y="-38.605" font-family="cmr7" transform="translate(-20.996 -26.262)">(</text><text x="67.786" y="-38.605" font-family="cmmi7" transform="translate(-20.996 -26.262)">R</text><text x="73.846" y="-38.605" font-family="cmr7" transform="translate(-20.996 -26.262)">)</text></g><path fill="none" d="M-22.923-51.905v26.2"/><path fill="none" stroke-linecap="round" stroke-linejoin="round" d="M-20.523-27.585c-1.44.38-2.12 1.227-2.4 2.08-.28-.853-.96-1.7-2.4-2.08"/><text x="46.205" y="-38.605" stroke="none" font-family="cmr7" font-size="7" transform="translate(-100.787 2.43)">decorate</text><path fill="none" d="M119.552-51.905v26.2"/><path fill="none" stroke-linecap="round" stroke-linejoin="round" d="M121.952-27.585c-1.44.38-2.12 1.227-2.4 2.08-.28-.853-.96-1.7-2.4-2.08"/><text x="46.205" y="-38.605" stroke="none" font-family="cmr7" font-size="7" transform="translate(75.7 2.43)">decorate</text><path fill="none" d="M26.624-16.445h47.2"/><path fill="none" stroke-linecap="round" stroke-linejoin="round" d="M71.944-18.845c.38 1.44 1.227 2.12 2.08 2.4-.853.28-1.7.96-2.08 2.4"/><g stroke="none"><text x="46.205" y="-38.605" font-family="cmbx7" font-size="7" transform="translate(-16.3 31.002)">P</text><text x="52.107" y="-38.605" font-family="cmbx7" font-size="7" transform="translate(-16.3 31.002)">ara</text><text x="64.661" y="-38.605" font-family="cmr7" font-size="7" transform="translate(-16.3 31.002)">((</text><text x="70.911" y="-38.605" font-family="cmsy7" font-size="7" transform="translate(-16.3 31.002)">¡</text><text x="77.161" y="-38.605" font-family="cmr7" font-size="7" transform="translate(-16.3 31.002)">)</text><text x="80.286" y="-41.623" font-family="cmsy5" font-size="5" transform="translate(-16.3 31.002)">y</text><text x="84.119" y="-38.605" font-family="cmr7" font-size="7" transform="translate(-16.3 31.002)">)</text></g></g></svg>